<svg xmlns="http://www.w3.org/2000/svg" xmlns:xlink="http://www.w3.org/1999/xlink" width="3000" zoomAndPan="magnify" viewBox="0 0 2250 1499.999933" height="2000" preserveAspectRatio="xMidYMid meet" version="1.0"><defs><clipPath id="2e1629f97c"><path d="M 325.5625 580 L 832 580 L 832 1181 L 325.5625 1181 Z M 325.5625 580 " clip-rule="nonzero"/></clipPath><clipPath id="629dc04dbc"><path d="M 384 592 L 891 592 L 891 1192.359375 L 384 1192.359375 Z M 384 592 " clip-rule="nonzero"/></clipPath><clipPath id="b62d988339"><path d="M 1419 431 L 1924.5625 431 L 1924.5625 1030 L 1419 1030 Z M 1419 431 " clip-rule="nonzero"/></clipPath><clipPath id="a016f60116"><path d="M 796 663.511719 L 1501 663.511719 L 1501 1368.511719 L 796 1368.511719 Z M 796 663.511719 " clip-rule="nonzero"/></clipPath></defs><rect x="-225" width="2700" fill="#ffffff" y="-149.999993" height="1799.99992" fill-opacity="1"/><rect x="-225" width="2700" fill="#ffffff" y="-149.999993" height="1799.99992" fill-opacity="1"/><g clip-path="url(#2e1629f97c)"><path fill="#0e5ddd" d="M 325.5625 1043.523438 L 342.390625 894.992188 L 620.292969 580.878906 L 812.179688 602.609375 L 774.167969 938.207031 L 831.976562 944.757812 L 814.507812 1098.953125 L 756.699219 1092.320312 L 746.753906 1180.675781 L 566.851562 1160.308594 L 576.859375 1071.996094 Z M 623.78125 787.03125 L 522.0625 909.65625 L 608.773438 919.496094 Z M 623.78125 787.03125 " fill-opacity="1" fill-rule="nonzero"/></g><g clip-path="url(#629dc04dbc)"><path fill="#3eb0f7" d="M 384.550781 1055.3125 L 401.324219 906.777344 L 679.238281 592.664062 L 871.125 614.398438 L 833.101562 950.003906 L 890.910156 956.542969 L 873.453125 1110.738281 L 815.644531 1104.1875 L 805.636719 1192.503906 L 625.796875 1172.097656 L 635.804688 1083.78125 Z M 682.714844 798.789062 L 581.007812 921.441406 L 667.710938 931.261719 Z M 682.714844 798.789062 " fill-opacity="1" fill-rule="nonzero"/></g><g clip-path="url(#b62d988339)"><path fill="#0e5ddd" d="M 1435.25 967.988281 L 1419.261719 819.363281 L 1621.929688 452.179688 L 1813.941406 431.484375 L 1850.066406 767.371094 L 1907.90625 761.160156 L 1924.464844 915.355469 L 1866.617188 921.566406 L 1876.125 1009.945312 L 1696.171875 1029.296875 L 1686.664062 940.929688 Z M 1670.3125 652.582031 L 1597.808594 794.472656 L 1684.570312 785.160156 Z M 1670.3125 652.582031 " fill-opacity="1" fill-rule="nonzero"/></g><path fill="#3eb0f7" d="M 1413.488281 1000.628906 L 1397.5 852.011719 L 1600.167969 484.851562 L 1792.175781 464.15625 L 1828.304688 799.957031 L 1886.144531 793.75 L 1902.703125 947.945312 L 1844.851562 954.152344 L 1854.363281 1042.519531 L 1674.410156 1061.882812 L 1664.898438 973.507812 Z M 1648.546875 685.222656 L 1576.046875 827.113281 L 1662.808594 817.800781 Z M 1648.546875 685.222656 " fill-opacity="1" fill-rule="nonzero"/><path fill="#0e5ddd" d="M 996.882812 230.148438 C 1078.078125 131.960938 1302.796875 157.203125 1360.128906 271.667969 C 1428.515625 377.878906 1400.707031 620.417969 1310.652344 708.382812 C 1229.054688 807.222656 1004.332031 781.570312 947.414062 667.226562 C 879.734375 561.648438 907.160156 317.855469 996.882812 230.148438 Z M 1217.144531 378.261719 C 1211.023438 355.609375 1194.855469 342.800781 1168.636719 339.835938 C 1141.871094 336.800781 1122.980469 345.636719 1111.96875 366.347656 C 1090.433594 402.570312 1077.207031 520.894531 1089.957031 560.636719 C 1098.238281 605.28125 1176.886719 614.789062 1195.132812 572.558594 C 1216.4375 536.707031 1230.039062 418.402344 1217.144531 378.261719 Z M 1217.144531 378.261719 " fill-opacity="1" fill-rule="nonzero"/><path fill="#3eb0f7" d="M 1040.40625 230.148438 C 1121.605469 131.960938 1346.324219 157.203125 1403.65625 271.667969 C 1472.042969 377.878906 1444.234375 620.417969 1354.179688 708.382812 C 1272.582031 807.222656 1047.859375 781.570312 990.890625 667.226562 C 923.261719 561.648438 950.675781 317.855469 1040.40625 230.148438 Z M 1260.667969 378.261719 C 1254.554688 355.609375 1238.386719 342.800781 1212.164062 339.835938 C 1185.390625 336.800781 1166.5 345.636719 1155.496094 366.347656 C 1133.960938 402.570312 1120.734375 520.894531 1133.484375 560.636719 C 1141.761719 605.28125 1220.414062 614.789062 1238.65625 572.546875 C 1259.964844 536.707031 1273.5 418.402344 1260.667969 378.261719 Z M 1260.667969 378.261719 " fill-opacity="1" fill-rule="nonzero"/><path fill="#3eb0f7" d="M 1474.136719 1063.265625 C 1444.609375 972.277344 1422.296875 904.484375 1396.976562 854.695312 C 1436.722656 846.664062 1475.066406 826.226562 1481.53125 780.027344 C 1489.210938 725.167969 1424.167969 673.921875 1373.710938 674.503906 C 1325.601562 675.058594 1305.726562 712.546875 1297.894531 752.4375 C 1260.742188 736.488281 1213.203125 730.25 1148.355469 730.25 C 1083.507812 730.25 1035.96875 736.488281 998.816406 752.4375 C 990.984375 712.546875 971.109375 675.058594 923 674.503906 C 872.542969 673.921875 807.5 725.167969 815.179688 780.027344 C 821.644531 826.226562 859.992188 846.664062 899.734375 854.695312 C 874.414062 904.484375 852.101562 972.277344 822.574219 1063.265625 C 752.59375 1278.941406 925.671875 1357.574219 1148.355469 1357.574219 C 1371.039062 1357.574219 1544.117188 1278.941406 1474.136719 1063.265625 " fill-opacity="1" fill-rule="nonzero"/><path fill="#ffffff" d="M 920.347656 819.332031 C 931.554688 802.777344 943.695312 788.976562 957.457031 777.574219 C 962.753906 773.183594 964.339844 765.8125 961.257812 759.683594 C 952.652344 742.5625 938.710938 726.796875 921.625 726.597656 C 896.3125 726.300781 863.675781 752.027344 867.527344 779.566406 C 869.8125 795.890625 884.558594 812.996094 900.207031 823.347656 C 906.847656 827.738281 915.898438 825.90625 920.347656 819.332031 " fill-opacity="1" fill-rule="nonzero"/><path fill="#ffffff" d="M 1147.003906 1309.359375 C 1321.324219 1309.359375 1368.859375 1218.140625 1326.085938 1133.1875 C 1275.261719 1032.25 1147.003906 1034.027344 1147.003906 1034.027344 C 1147.003906 1034.027344 1018.742188 1032.25 967.921875 1133.1875 C 925.144531 1218.140625 972.679688 1309.359375 1147.003906 1309.359375 " fill-opacity="1" fill-rule="nonzero"/><path fill="#ffffff" d="M 1376.363281 819.332031 C 1365.160156 802.777344 1353.015625 788.976562 1339.253906 777.574219 C 1333.957031 773.183594 1332.371094 765.8125 1335.453125 759.683594 C 1344.058594 742.5625 1358 726.796875 1375.085938 726.597656 C 1400.398438 726.300781 1433.035156 752.027344 1429.183594 779.566406 C 1426.894531 795.890625 1412.152344 812.996094 1396.503906 823.347656 C 1389.863281 827.738281 1380.8125 825.90625 1376.363281 819.332031 " fill-opacity="1" fill-rule="nonzero"/><g clip-path="url(#a016f60116)"><path fill="#0e5ddd" d="M 922.128906 685.0625 C 896.390625 685.0625 865.722656 700.328125 845.566406 723.238281 C 830.171875 740.726562 823.089844 760.378906 825.636719 778.566406 C 830.453125 812.96875 856.089844 835.101562 901.824219 844.34375 C 905.066406 844.996094 907.804688 847.125 909.246094 850.097656 C 910.683594 853.066406 910.644531 856.546875 909.148438 859.484375 C 885.0625 906.855469 864.164062 969.304688 832.621094 1066.53125 C 808.535156 1140.757812 813.113281 1201.488281 846.214844 1247.03125 C 870.582031 1280.558594 910.433594 1306.160156 964.675781 1323.144531 C 1015.257812 1338.980469 1077.0625 1347.011719 1148.355469 1347.011719 C 1219.652344 1347.011719 1281.457031 1338.980469 1332.035156 1323.144531 C 1386.277344 1306.160156 1426.128906 1280.558594 1450.496094 1247.03125 C 1483.601562 1201.488281 1488.171875 1140.757812 1464.089844 1066.53125 C 1432.546875 969.304688 1411.648438 906.855469 1387.5625 859.484375 C 1386.066406 856.546875 1386.03125 853.066406 1387.464844 850.097656 C 1388.90625 847.125 1391.648438 844.996094 1394.886719 844.34375 C 1440.621094 835.101562 1466.257812 812.96875 1471.074219 778.566406 C 1473.621094 760.378906 1466.546875 740.726562 1451.144531 723.238281 C 1430.988281 700.328125 1400.324219 685.0625 1374.582031 685.0625 C 1374.332031 685.0625 1374.078125 685.066406 1373.832031 685.066406 C 1338.804688 685.472656 1317.347656 708.171875 1308.257812 754.472656 C 1307.644531 757.605469 1305.644531 760.289062 1302.824219 761.78125 C 1300 763.269531 1296.65625 763.402344 1293.722656 762.144531 C 1259.359375 747.394531 1214.527344 740.8125 1148.355469 740.8125 C 1082.183594 740.8125 1037.351562 747.394531 1002.988281 762.144531 C 1000.054688 763.402344 996.710938 763.269531 993.886719 761.78125 C 991.066406 760.289062 989.070312 757.605469 988.453125 754.472656 C 979.363281 708.171875 957.90625 685.472656 922.878906 685.066406 C 922.632812 685.066406 922.378906 685.0625 922.128906 685.0625 Z M 1148.355469 1368.136719 C 1074.914062 1368.136719 1010.992188 1359.78125 958.363281 1343.304688 C 899.699219 1324.9375 856.214844 1296.726562 829.125 1259.453125 C 791.824219 1208.128906 786.234375 1141.027344 812.527344 1060.011719 C 841.839844 969.675781 862.074219 909.003906 884.421875 861.914062 C 837.769531 849.074219 810.3125 821.46875 804.714844 781.492188 C 801.304688 757.113281 810.179688 731.464844 829.703125 709.277344 C 854.269531 681.363281 890.894531 663.53125 923.121094 663.941406 C 952.789062 664.285156 990.390625 677.804688 1006.367188 738.125 C 1041.691406 725.414062 1086.25 719.6875 1148.355469 719.6875 C 1210.464844 719.6875 1255.019531 725.414062 1290.347656 738.125 C 1306.324219 677.804688 1343.921875 664.285156 1373.589844 663.941406 C 1405.769531 663.589844 1442.441406 681.363281 1467.007812 709.277344 C 1486.53125 731.464844 1495.40625 757.113281 1491.996094 781.492188 C 1486.398438 821.46875 1458.941406 849.074219 1412.289062 861.914062 C 1434.636719 909.003906 1454.871094 969.675781 1484.183594 1060.011719 C 1510.46875 1141.027344 1504.886719 1208.128906 1467.585938 1259.453125 C 1440.496094 1296.726562 1397.011719 1324.9375 1338.347656 1343.304688 C 1285.71875 1359.78125 1221.796875 1368.136719 1148.355469 1368.136719 " fill-opacity="1" fill-rule="nonzero"/></g><path fill="#0e5ddd" d="M 1263.332031 1157.675781 C 1248.710938 1157.675781 1235 1166.824219 1225.722656 1182.777344 C 1220.328125 1192.054688 1213.28125 1197.375 1206.382812 1197.375 C 1199.480469 1197.375 1192.429688 1192.054688 1187.039062 1182.777344 C 1180.039062 1170.746094 1170.523438 1162.59375 1159.992188 1159.308594 L 1159.992188 1143.417969 C 1164.667969 1140.894531 1171.539062 1136.988281 1178.476562 1132.34375 C 1197.492188 1119.625 1206.34375 1108.660156 1206.34375 1097.828125 C 1206.34375 1068.921875 1169.316406 1068.921875 1149.429688 1068.921875 C 1129.539062 1068.921875 1092.515625 1068.921875 1092.515625 1097.828125 C 1092.515625 1108.660156 1101.367188 1119.625 1120.378906 1132.34375 C 1127.324219 1136.988281 1134.1875 1140.894531 1138.867188 1143.417969 L 1138.867188 1159.308594 C 1128.335938 1162.59375 1118.816406 1170.746094 1111.820312 1182.777344 C 1106.429688 1192.054688 1099.375 1197.375 1092.476562 1197.375 C 1085.578125 1197.375 1078.53125 1192.054688 1073.132812 1182.777344 C 1063.855469 1166.824219 1050.148438 1157.675781 1035.527344 1157.675781 C 1020.90625 1157.675781 1007.195312 1166.824219 997.921875 1182.777344 C 994.988281 1187.824219 996.699219 1194.289062 1001.738281 1197.21875 C 1006.785156 1200.152344 1013.246094 1198.441406 1016.179688 1193.394531 C 1021.578125 1184.121094 1028.625 1178.800781 1035.527344 1178.800781 C 1042.421875 1178.800781 1049.476562 1184.121094 1054.871094 1193.394531 C 1064.148438 1209.351562 1077.851562 1218.5 1092.476562 1218.5 C 1107.097656 1218.5 1120.808594 1209.351562 1130.085938 1193.394531 C 1135.476562 1184.121094 1142.53125 1178.800781 1149.429688 1178.800781 C 1156.328125 1178.800781 1163.378906 1184.121094 1168.773438 1193.394531 C 1178.046875 1209.351562 1191.757812 1218.5 1206.382812 1218.5 C 1221.003906 1218.5 1234.707031 1209.351562 1243.984375 1193.394531 C 1249.382812 1184.121094 1256.429688 1178.800781 1263.332031 1178.800781 C 1270.226562 1178.800781 1277.28125 1184.121094 1282.671875 1193.394531 C 1285.609375 1198.441406 1292.074219 1200.152344 1297.113281 1197.21875 C 1302.15625 1194.289062 1303.867188 1187.824219 1300.9375 1182.777344 C 1291.660156 1166.824219 1277.949219 1157.675781 1263.332031 1157.675781 " fill-opacity="1" fill-rule="nonzero"/><path fill="#0e5ddd" d="M 1060.257812 1013.941406 C 1062.972656 1008.773438 1060.980469 1002.390625 1055.8125 999.679688 C 1050.652344 996.96875 1044.265625 998.960938 1041.554688 1004.125 C 1021.699219 1041.960938 981.570312 1035.832031 979.738281 1035.535156 C 974.003906 1034.539062 968.554688 1038.378906 967.546875 1044.117188 C 966.539062 1049.863281 970.378906 1055.332031 976.128906 1056.347656 C 979.398438 1056.917969 983.3125 1057.269531 987.671875 1057.269531 C 1009.425781 1057.269531 1042.152344 1048.441406 1060.257812 1013.941406 " fill-opacity="1" fill-rule="nonzero"/><path fill="#0e5ddd" d="M 1327.351562 1044.117188 C 1326.34375 1038.367188 1320.863281 1034.527344 1315.121094 1035.539062 C 1314.703125 1035.609375 1273.417969 1042.371094 1253.34375 1004.125 C 1250.628906 998.960938 1244.25 996.96875 1239.082031 999.679688 C 1233.917969 1002.390625 1231.925781 1008.773438 1234.636719 1013.941406 C 1252.742188 1048.441406 1285.476562 1057.269531 1307.230469 1057.269531 C 1311.582031 1057.269531 1315.503906 1056.917969 1318.773438 1056.347656 C 1324.515625 1055.332031 1328.355469 1049.863281 1327.351562 1044.117188 " fill-opacity="1" fill-rule="nonzero"/></svg>