<svg xmlns="http://www.w3.org/2000/svg" xmlns:xlink="http://www.w3.org/1999/xlink" width="3000" zoomAndPan="magnify" viewBox="0 0 2250 1499.999933" height="2000" preserveAspectRatio="xMidYMid meet" version="1.0"><defs><clipPath id="922e502066"><path d="M 316 29.078125 L 1929 29.078125 L 1929 1470.578125 L 316 1470.578125 Z M 316 29.078125 " clip-rule="nonzero"/></clipPath></defs><rect x="-225" width="2700" fill="#ffffff" y="-149.999993" height="1799.99992" fill-opacity="1"/><rect x="-225" width="2700" fill="#ffffff" y="-149.999993" height="1799.99992" fill-opacity="1"/><g clip-path="url(#922e502066)"><path fill="#3eb0f7" d="M 1663.640625 475.597656 C 1640.320312 475.371094 1641.003906 439.246094 1664.328125 439.472656 C 1687.417969 439.929688 1686.960938 476.054688 1663.640625 475.597656 Z M 1630.488281 479.941406 C 1624.542969 478.800781 1619.285156 476.96875 1614.253906 475.140625 C 1605.792969 472.167969 1598.019531 469.425781 1587.046875 469.199219 C 1582.472656 469.199219 1578.128906 469.425781 1576.070312 472.855469 C 1573.785156 476.058594 1575.386719 479.484375 1578.128906 485.429688 C 1579.5 488.175781 1581.328125 491.148438 1582.933594 493.890625 C 1584.761719 497.316406 1586.816406 500.519531 1588.1875 504.175781 L 1587.960938 505.320312 C 1587.734375 505.320312 1587.503906 505.550781 1587.503906 505.78125 C 1583.617188 514.011719 1578.585938 521.78125 1572.871094 528.871094 C 1571.5 528.871094 1570.128906 528.410156 1569.210938 527.269531 C 1568.070312 526.125 1567.613281 524.066406 1568.300781 522.464844 C 1569.210938 520.175781 1567.839844 517.433594 1565.558594 516.75 C 1563.269531 515.835938 1560.753906 516.976562 1559.839844 519.265625 C 1558.011719 524.066406 1558.929688 529.550781 1562.582031 533.4375 C 1565.097656 536.410156 1568.984375 538.011719 1572.871094 538.011719 C 1574.015625 538.011719 1575.160156 537.78125 1576.300781 537.550781 C 1577.210938 537.324219 1577.898438 536.640625 1578.585938 535.949219 C 1580.1875 534.351562 1581.328125 532.292969 1582.703125 530.460938 C 1581.792969 538.921875 1584.761719 542.804688 1587.960938 544.636719 C 1589.105469 545.320312 1590.703125 545.78125 1592.765625 545.78125 C 1595.28125 545.78125 1598.253906 545.09375 1601.910156 542.804688 C 1604.652344 541.207031 1607.167969 539.148438 1609.679688 536.863281 C 1611.511719 535.261719 1611.511719 532.292969 1609.910156 530.460938 C 1608.078125 528.632812 1605.335938 528.632812 1603.507812 530.234375 C 1601.449219 532.0625 1599.394531 533.894531 1597.105469 535.265625 C 1594.589844 536.636719 1592.992188 537.09375 1592.304688 536.636719 C 1591.390625 536.175781 1590.933594 533.894531 1591.84375 529.316406 L 1596.648438 507.140625 C 1604.191406 504.398438 1609.222656 501.882812 1614.480469 498.910156 C 1618.597656 496.851562 1622.9375 494.566406 1628.886719 492.050781 C 1630.03125 491.59375 1633.003906 489.992188 1634.144531 487.019531 C 1634.601562 485.421875 1634.371094 483.59375 1633.457031 481.988281 C 1633.003906 481.082031 1631.859375 480.171875 1630.488281 479.941406 Z M 1557.785156 412.496094 C 1534.695312 412.265625 1534.007812 448.390625 1557.324219 448.617188 C 1580.648438 449.078125 1581.105469 412.953125 1557.785156 412.496094 Z M 1187.171875 568.878906 C 1185.570312 566.136719 1185.800781 562.480469 1187.628906 559.738281 C 1189.460938 556.992188 1192.433594 555.390625 1195.863281 555.621094 C 1201.804688 555.851562 1208.894531 555.851562 1216.667969 555.851562 C 1239.074219 555.621094 1264.679688 555.390625 1281.371094 563.621094 C 1318.636719 582.597656 1336.011719 624.898438 1351.332031 662.160156 C 1352.246094 664.449219 1352.476562 667.652344 1351.558594 669.933594 C 1350.644531 672.222656 1349.042969 674.507812 1346.753906 675.421875 C 1336.238281 679.769531 1324.578125 683.882812 1312.917969 688 C 1296.230469 693.714844 1278.851562 699.886719 1264.21875 706.976562 C 1263.074219 707.433594 1261.703125 707.886719 1260.332031 707.886719 C 1259.191406 707.886719 1258.277344 707.660156 1257.132812 707.203125 C 1254.84375 706.515625 1253.019531 704.6875 1251.875 702.398438 C 1231.980469 656.445312 1202.71875 599.058594 1187.171875 568.878906 Z M 1210.492188 574.136719 C 1225.582031 603.859375 1247.757812 648.214844 1264.90625 686.398438 C 1278.167969 680.679688 1292.800781 675.652344 1306.972656 670.621094 C 1315.203125 667.878906 1323.433594 664.90625 1331.4375 661.929688 C 1317.492188 628.78125 1301.714844 594.484375 1273.136719 580.082031 C 1260.332031 573.679688 1236.097656 573.90625 1216.890625 574.136719 C 1214.609375 574.136719 1212.550781 574.136719 1210.492188 574.136719 Z M 1897.53125 320.355469 C 1871.925781 353.507812 1835.34375 372.484375 1800.132812 391.003906 C 1789.386719 396.71875 1778.871094 402.660156 1768.355469 408.609375 C 1770.871094 412.265625 1773.613281 415.46875 1775.898438 419.355469 C 1803.792969 465.996094 1797.617188 529.097656 1761.269531 569.335938 C 1744.804688 587.625 1723.773438 600.65625 1699.308594 608.433594 C 1715.996094 616.207031 1729.257812 627.410156 1737.261719 641.128906 C 1742.75 650.273438 1741.148438 657.589844 1738.863281 662.164062 C 1738.175781 663.761719 1736.574219 664.90625 1735.433594 666.046875 C 1776.128906 726.863281 1785.277344 742.867188 1827.34375 821.058594 C 1831.457031 828.832031 1828.714844 838.433594 1820.945312 842.550781 L 1734.289062 890.792969 L 1741.609375 1083.070312 C 1743.664062 1133.371094 1745.726562 1185.269531 1740.011719 1236.941406 C 1738.410156 1250.429688 1736.125 1265.976562 1726.976562 1279.464844 C 1717.148438 1293.640625 1702.054688 1301.640625 1690.167969 1308.042969 L 1433.871094 1443.164062 C 1432.269531 1449.792969 1426.78125 1455.054688 1419.921875 1455.511719 C 1301.035156 1465.339844 1180.316406 1466.484375 1063.484375 1467.628906 L 773.351562 1470.601562 C 757.578125 1470.828125 741.800781 1470.828125 725.796875 1470.828125 C 662.238281 1470.828125 597.535156 1468.3125 534.429688 1453.222656 C 523.226562 1450.707031 510.425781 1446.820312 500.820312 1436.535156 C 488.933594 1423.957031 487.5625 1406.582031 486.417969 1395.152344 C 474.300781 1253.628906 466.070312 1116.449219 460.8125 980.183594 C 417.601562 980.871094 374.160156 980.414062 330.949219 976.296875 C 325.003906 975.839844 319.972656 971.953125 317.6875 966.46875 C 315.398438 960.980469 316.542969 954.578125 320.203125 950.007812 C 372.558594 888.277344 414.855469 819.457031 447.09375 745.382812 C 446.863281 745.15625 446.632812 745.15625 446.632812 745.15625 C 445.722656 744.011719 445.492188 742.414062 445.492188 740.8125 C 445.03125 734.867188 442.976562 722.292969 445.71875 716.578125 C 448.460938 711.546875 457.375 708.121094 462.179688 705.144531 C 463.324219 704.460938 468.582031 701.488281 474.980469 697.601562 C 441.832031 659.878906 424.226562 606.375 421.484375 597.691406 C 392.445312 502.804688 424.457031 396.035156 503.332031 325.847656 C 586.78125 251.542969 707.042969 236.679688 809.929688 288.125 C 855.65625 310.761719 889.949219 350.085938 913.269531 404.496094 C 913.730469 402.441406 914.183594 400.152344 914.640625 397.867188 C 927.675781 348.484375 967.226562 312.359375 1011.125 309.84375 C 1064.394531 306.644531 1103.71875 349.855469 1122.464844 375.917969 C 1146.015625 408.613281 1162.933594 444.964844 1178.710938 480.859375 C 1224.664062 473.085938 1263.761719 476.058594 1295.773438 489.777344 L 1136.875 168.089844 C 1135.503906 165.347656 1135.277344 162.148438 1136.417969 159.175781 C 1137.554688 156.203125 1139.617188 153.917969 1142.359375 152.546875 L 1175.742188 137.457031 C 1175.96875 137.457031 1176.199219 137.457031 1176.652344 137.457031 C 1177.339844 136.996094 1178.023438 136.996094 1178.941406 136.769531 C 1179.628906 136.769531 1180.085938 136.769531 1180.769531 136.769531 C 1181.683594 136.769531 1182.375 136.769531 1183.058594 136.996094 C 1183.746094 137.222656 1184.429688 137.457031 1185.117188 137.683594 C 1185.574219 137.910156 1185.800781 137.910156 1186.027344 138.140625 C 1197.234375 144.316406 1280.222656 180.207031 1353.386719 211.988281 C 1503.601562 276.917969 1503.601562 276.917969 1500.167969 288.121094 C 1498.566406 293.152344 1497.878906 294.75 1324.351562 407.46875 L 1391.109375 539.617188 C 1410.773438 536.1875 1430.664062 537.328125 1449.640625 539.84375 C 1436.378906 527.269531 1425.175781 513.78125 1417.175781 499.832031 C 1402.769531 474.914062 1396.140625 452.050781 1396.828125 430.101562 C 1398.199219 372.484375 1449.179688 331.101562 1498.796875 319.898438 C 1509.085938 317.609375 1519.144531 316.46875 1529.433594 315.78125 L 1523.03125 185.003906 C 1522.117188 166.027344 1520.976562 146.363281 1523.71875 126.246094 C 1525.773438 110.46875 1530.117188 94.691406 1536.519531 79.148438 C 1549.78125 47.371094 1571.5 29.308594 1596.191406 29.078125 C 1613.796875 29.078125 1631.398438 38.910156 1645.578125 56.515625 C 1672.328125 89.894531 1677.585938 131.046875 1677.128906 159.625 C 1676.671875 194.605469 1668.214844 228.214844 1660.210938 260.679688 L 1641.691406 333.839844 C 1642.835938 334.300781 1644.207031 334.527344 1645.351562 334.984375 C 1654.496094 337.957031 1663.867188 341.160156 1673.242188 344.585938 C 1689.246094 309.378906 1707.765625 275.539062 1729.257812 243.300781 C 1749.605469 212.894531 1775.667969 179.511719 1814.535156 164.878906 C 1841.511719 154.59375 1872.378906 155.050781 1899.128906 166.023438 C 1903.929688 167.851562 1910.101562 170.828125 1915.132812 176.3125 C 1921.53125 182.941406 1923.820312 191.171875 1925.417969 198.261719 C 1934.339844 240.5625 1923.824219 286.289062 1897.53125 320.355469 Z M 1555.039062 183.40625 L 1561.441406 316.46875 C 1578.128906 318.070312 1594.589844 321.273438 1610.824219 325.160156 L 1629.117188 252.910156 C 1636.660156 222.277344 1644.664062 190.496094 1645.121094 159.171875 C 1645.578125 126.246094 1636.890625 96.757812 1620.65625 76.636719 C 1612.652344 66.804688 1603.964844 61.085938 1596.1875 61.085938 C 1583.15625 61.085938 1572.183594 76.863281 1566.007812 91.496094 C 1560.75 104.296875 1557.09375 117.332031 1555.488281 130.363281 C 1553.210938 147.511719 1554.125 165.800781 1555.039062 183.40625 Z M 1378.765625 577.566406 C 1379.679688 577.566406 1382.652344 579.621094 1387.683594 581.226562 C 1403.457031 585.796875 1420.832031 585.796875 1436.609375 581.226562 C 1439.582031 578.023438 1443.011719 574.824219 1445.984375 571.621094 C 1426.550781 569.109375 1406.433594 568.195312 1388.140625 572.765625 C 1382.878906 574.367188 1379.679688 576.652344 1378.765625 577.566406 Z M 1404.144531 616.207031 C 1397.96875 615.746094 1391.570312 614.832031 1385.394531 613.230469 C 1386.308594 617.117188 1387.222656 621.003906 1387.910156 624.890625 L 1393.851562 637.007812 C 1397.738281 631.066406 1401.625 625.117188 1405.742188 619.402344 Z M 1205.691406 172.433594 L 1314.0625 386.890625 C 1367.335938 352.367188 1436.835938 306.867188 1467.019531 286.519531 C 1441.640625 275.089844 1390.65625 252.910156 1344.242188 233.019531 C 1282.738281 206.269531 1234.957031 185.691406 1205.691406 172.433594 Z M 1332.808594 513.320312 C 1343.554688 523.382812 1353.15625 535.957031 1361.617188 550.816406 C 1363.902344 549.21875 1366.1875 547.617188 1368.933594 546.246094 L 1175.054688 162.832031 L 1162.710938 168.546875 Z M 1019.8125 342.304688 C 1021.410156 351.449219 1023.699219 360.597656 1027.816406 368.828125 C 1034.445312 382.089844 1048.621094 397.636719 1067.140625 397.867188 C 1075.832031 397.40625 1084.515625 393.519531 1092.0625 388.722656 C 1078.800781 371.570312 1052.507812 344.136719 1019.8125 342.304688 Z M 949.167969 498.460938 C 964.257812 490.457031 980.945312 485.886719 997.867188 486.570312 C 1025.300781 487.03125 1050.910156 498.003906 1069.886719 517.664062 C 1089.089844 537.328125 1099.378906 563.390625 1098.925781 590.601562 C 1098.238281 636.324219 1067.601562 674.28125 1026.21875 686.855469 C 1030.5625 694.628906 1035.59375 702.171875 1040.164062 709.945312 C 1141.449219 712.234375 1242.960938 716.574219 1349.730469 723.664062 C 1364.59375 673.820312 1361.164062 618.039062 1337.15625 572.3125 C 1327.328125 553.335938 1315.664062 538.929688 1302.402344 529.785156 C 1271.769531 508.066406 1228.097656 503.035156 1172.539062 514.695312 C 1165.222656 516.292969 1157.679688 512.410156 1154.707031 505.550781 C 1139.390625 470.800781 1123.613281 435.359375 1102.578125 403.8125 C 1092.75 410.671875 1081.085938 416.160156 1067.597656 416.160156 L 1066.914062 416.160156 C 1044.964844 415.703125 1023.246094 400.382812 1011.585938 377.0625 C 1006.328125 366.316406 1003.128906 355.113281 1001.296875 343.679688 C 973.40625 351.453125 952.597656 379.121094 945.738281 405.867188 C 937.734375 436.5 942.078125 468.964844 949.167969 498.460938 Z M 1028.867188 589.203125 C 1028.867188 571.222656 1014.292969 556.644531 996.3125 556.644531 C 978.328125 556.644531 963.753906 571.21875 963.753906 589.203125 C 963.753906 607.183594 978.328125 621.757812 996.3125 621.757812 C 1014.292969 621.757812 1028.867188 607.179688 1028.867188 589.203125 Z M 908.925781 642.5 C 904.355469 649.359375 899.550781 656.21875 893.835938 662.621094 C 878.746094 680.453125 860.683594 695.542969 840.792969 707.433594 C 895.207031 707.660156 948.476562 708.117188 1001.75 709.03125 C 998.320312 703.316406 994.890625 697.375 991.460938 691.425781 C 956.480469 689.824219 926.074219 670.621094 908.925781 642.5 Z M 896.808594 453.421875 C 883.089844 428.5 865.027344 405.867188 843.308594 387.121094 C 788.667969 340.476562 714.132812 319.898438 643.484375 332.472656 C 643.945312 336.816406 642.574219 342.761719 635.027344 349.621094 C 682.355469 380.941406 734.023438 416.839844 765.117188 468.964844 C 804.902344 535.5 804.671875 618.035156 798.726562 693.023438 C 825.707031 681.820312 850.167969 664.445312 869.605469 641.8125 C 880.125 629.695312 888.355469 616.433594 894.984375 602.714844 C 894.296875 597.683594 893.613281 592.878906 893.613281 587.621094 C 893.839844 567.734375 900.011719 548.757812 910.984375 532.523438 C 910.984375 522.921875 910.300781 513.546875 908.699219 503.941406 C 905.726562 485.886719 901.613281 469.199219 896.808594 453.421875 Z M 592.269531 372.484375 C 575.808594 440.386719 571.921875 499.148438 580.382812 551.730469 C 590.898438 616.207031 621.992188 672.90625 665.890625 707.886719 C 689.667969 707.886719 712.988281 707.65625 736.082031 707.65625 C 754.371094 706.746094 772.207031 703.085938 789.351562 696.910156 C 795.753906 619.175781 796.671875 539.386719 757.347656 473.539062 C 726.710938 422.324219 674.582031 386.65625 627.480469 355.335938 C 619.707031 360.140625 605.761719 367.683594 592.269531 372.484375 Z M 600.308594 359.527344 C 604.046875 357.894531 607.730469 356.15625 611.371094 354.3125 C 614.644531 352.652344 617.757812 350.988281 620.839844 349.144531 C 621.828125 348.554688 622.816406 347.949219 623.804688 347.316406 C 628.308594 344.429688 636.265625 339.382812 634.570312 332.933594 C 633.882812 329.957031 632.28125 326.53125 625.652344 326.074219 C 625.195312 326.074219 624.738281 326.074219 624.28125 326.074219 C 605.988281 326.074219 573.296875 347.792969 569.640625 358.078125 C 567.808594 362.421875 567.582031 365.625 568.726562 366.539062 C 568.953125 366.539062 568.953125 366.539062 568.953125 366.765625 C 568.953125 368.554688 576.902344 367.367188 577.640625 367.230469 C 585.535156 365.753906 592.972656 362.734375 600.308594 359.527344 Z M 623.824219 317.382812 C 624.507812 317.382812 625.421875 317.15625 626.109375 317.15625 C 632.285156 317.613281 637.085938 319.898438 640.058594 324.015625 C 640.285156 324.015625 640.515625 323.789062 640.742188 323.558594 C 714.363281 310.296875 792.328125 331.5625 849.027344 380.257812 C 862.285156 391.460938 873.71875 404.03125 884.238281 417.753906 C 863.890625 369.96875 834.394531 335.902344 795.757812 316.699219 C 742.257812 290.175781 683.957031 283.546875 629.769531 295.890625 C 626.339844 301.605469 624.511719 308.234375 624.738281 315.09375 C 624.734375 316.011719 624.28125 316.699219 623.824219 317.382812 Z M 559.347656 324.242188 C 561.863281 330.417969 565.523438 336.132812 570.550781 340.476562 C 571.011719 340.933594 571.011719 341.390625 571.238281 341.847656 C 582.894531 331.328125 601.644531 320.816406 616.734375 318.070312 C 616.277344 317.160156 615.59375 316.242188 615.59375 315.328125 C 615.59375 309.386719 616.964844 303.898438 619.019531 298.410156 C 598.21875 304.121094 578.097656 312.8125 559.347656 324.242188 Z M 444.574219 550.589844 C 447.089844 530.699219 451.890625 509.894531 459.664062 488.402344 C 481.15625 428.269531 516.363281 385.285156 559.347656 366.769531 C 558.890625 363.796875 559.121094 359.910156 561.175781 354.878906 C 561.863281 352.589844 563.464844 350.304688 565.523438 347.792969 C 565.292969 347.5625 564.835938 347.5625 564.609375 347.332031 C 558.894531 342.304688 554.320312 336.128906 551.347656 329.273438 C 542.203125 335.445312 533.289062 342.074219 524.824219 349.621094 C 465.378906 402.433594 436.347656 478.113281 444.574219 550.589844 Z M 543.570312 703.542969 C 547.917969 703.769531 551.574219 705.832031 554.316406 708.800781 C 587.699219 708.574219 620.390625 708.117188 652.402344 708.117188 C 610.5625 671.078125 581.757812 616.664062 571.464844 553.105469 C 563.007812 500.746094 566.660156 442.449219 582.4375 375.230469 C 579.011719 376.144531 576.035156 376.601562 573.0625 376.601562 C 569.636719 376.601562 566.660156 375.6875 564.375 374.3125 C 508.816406 397.636719 480.238281 457.308594 468.121094 491.371094 C 455.773438 526.351562 450.515625 559.503906 452.570312 589.457031 C 464.695312 628.09375 498.761719 700.34375 543.570312 703.542969 Z M 1413.515625 872.734375 L 1380.820312 933.777344 C 1373.046875 948.179688 1363.445312 966.015625 1345.839844 976.988281 C 1328.007812 988.191406 1307.199219 988.644531 1290.738281 989.105469 C 1220.546875 990.707031 1148.988281 992.53125 1077.195312 992.53125 C 1015.464844 992.53125 953.730469 991.160156 892.234375 987.503906 C 868.457031 986.132812 844.90625 984.300781 821.128906 982.472656 C 776.316406 979.042969 729.902344 975.386719 684.636719 974.699219 C 638.222656 973.785156 591.128906 975.613281 545.628906 977.441406 C 528.023438 978.128906 510.421875 978.8125 492.816406 979.5 C 498.074219 1115.078125 506.304688 1251.800781 518.421875 1392.410156 C 519.105469 1401.785156 520.25 1410.46875 524.136719 1414.8125 C 527.796875 1418.472656 535.109375 1420.53125 541.742188 1422.132812 C 616.964844 1440.191406 696.296875 1439.277344 773.117188 1438.59375 L 1063.25 1435.621094 C 1174.59375 1434.707031 1289.824219 1433.5625 1402.769531 1424.875 C 1402.996094 1424.648438 1403.226562 1424.417969 1403.457031 1424.1875 C 1409.855469 1312.386719 1410.316406 1200.816406 1410.773438 1092.902344 C 1411 1020.65625 1411.457031 947.039062 1413.515625 872.734375 Z M 1417.859375 762.53125 C 1416.03125 762.074219 1413.972656 761.386719 1412.371094 760.472656 C 1174.824219 741.726562 967.226562 738.753906 735.851562 739.667969 C 732.878906 739.667969 729.90625 740.125 726.707031 740.125 C 725.5625 740.125 724.648438 740.125 723.507812 740.125 C 722.820312 740.125 722.136719 739.667969 721.449219 739.667969 C 657.890625 739.894531 592.730469 740.351562 524.367188 741.039062 C 517.964844 741.039062 511.792969 741.039062 505.390625 741.039062 C 500.359375 741.265625 491.445312 739.210938 484.816406 738.980469 C 454.40625 813.746094 414.167969 883.476562 364.324219 946.808594 C 424.226562 950.234375 485.042969 947.949219 544.261719 945.433594 C 590.445312 943.605469 638 941.777344 685.097656 942.691406 C 731.507812 943.378906 778.378906 947.039062 823.648438 950.464844 C 847.195312 952.296875 870.515625 954.125 894.066406 955.496094 C 1025.757812 963.5 1159.964844 960.296875 1289.828125 957.097656 C 1303.316406 956.640625 1318.636719 956.414062 1328.925781 949.78125 C 1339.445312 943.378906 1346.300781 930.117188 1352.703125 918.457031 L 1416.261719 800.027344 C 1416.714844 787.449219 1417.175781 775.105469 1417.859375 762.53125 Z M 1455.128906 718.402344 C 1466.101562 713.832031 1477.304688 709.945312 1488.507812 706.058594 C 1509.316406 698.972656 1530.121094 691.886719 1550.925781 685.023438 C 1563.269531 680.90625 1575.617188 677.023438 1588.191406 672.90625 C 1594.136719 671.078125 1600.308594 669.023438 1606.484375 667.191406 C 1608.3125 666.734375 1624.542969 662.621094 1624.773438 661.476562 C 1626.144531 646.160156 1624.773438 630.609375 1620.203125 615.976562 C 1619.289062 615.75 1618.144531 615.75 1617.230469 615.75 C 1573.332031 610.949219 1529.207031 594.714844 1492.167969 572.082031 C 1479.824219 582.828125 1468.160156 594.257812 1457.1875 606.601562 C 1456.730469 606.832031 1456.730469 607.289062 1456.273438 607.515625 C 1448.957031 613.691406 1443.472656 622.832031 1437.527344 630.378906 C 1429.980469 639.523438 1423.808594 649.8125 1417.179688 659.644531 C 1413.292969 665.816406 1410.316406 672.445312 1407.117188 678.847656 C 1404.144531 684.5625 1400.257812 689.820312 1397.289062 695.769531 C 1392.257812 705.601562 1387.6875 715.65625 1383.570312 726.175781 C 1395.457031 727.089844 1406.890625 728.691406 1418.550781 728.003906 C 1422.433594 727.777344 1426.320312 727.320312 1429.980469 726.632812 C 1438.667969 724.578125 1446.898438 721.605469 1455.128906 718.402344 Z M 1709.59375 1084.445312 L 1702.964844 908.167969 L 1633.917969 946.347656 C 1629.804688 948.636719 1622.945312 952.523438 1614.484375 952.523438 C 1613.113281 952.523438 1611.742188 952.296875 1610.371094 952.0625 C 1601.226562 950.691406 1595.28125 945.203125 1591.621094 941.777344 C 1576.761719 928.289062 1563.953125 916.855469 1552.296875 906.339844 C 1510.230469 869.070312 1484.390625 845.980469 1452.613281 800.023438 L 1447.808594 808.710938 C 1443.695312 904.507812 1443.007812 1000.078125 1442.78125 1092.902344 C 1442.320312 1194.871094 1441.636719 1300.039062 1436.152344 1405.898438 L 1675.074219 1279.691406 C 1684.449219 1274.664062 1695.195312 1269.175781 1700.453125 1261.402344 C 1705.480469 1254.082031 1707.078125 1243.566406 1708.222656 1233.28125 C 1713.480469 1184.125 1711.652344 1133.371094 1709.59375 1084.445312 Z M 1686.273438 676.109375 C 1686.046875 676.109375 1685.589844 676.109375 1685.359375 676.109375 C 1609.226562 698.511719 1533.320312 723.664062 1458.785156 750.640625 C 1499.023438 815.800781 1523.71875 837.980469 1573.558594 882.5625 C 1585.21875 892.851562 1598.253906 904.511719 1613.34375 918.226562 C 1613.800781 918.6875 1614.488281 919.371094 1615.171875 920.058594 C 1616.316406 919.597656 1617.6875 918.914062 1618.375 918.457031 L 1791.675781 822.429688 C 1754.867188 754.070312 1745.265625 738.292969 1703.425781 675.652344 C 1697.707031 676.109375 1691.988281 676.109375 1686.273438 676.109375 Z M 1656.550781 635.867188 C 1658.378906 637.011719 1659.75 638.382812 1660.894531 640.210938 C 1662.726562 642.726562 1669.125 644.097656 1680.332031 644.097656 C 1686.046875 644.097656 1691.761719 644.097656 1697.25 644.097656 C 1692.449219 640.441406 1687.421875 637.925781 1683.078125 636.09375 C 1674.617188 632.4375 1665.242188 630.378906 1655.640625 628.324219 C 1656.097656 630.835938 1656.324219 633.351562 1656.550781 635.867188 Z M 1748.234375 435.816406 C 1744.347656 428.957031 1739.089844 423.011719 1733.601562 417.296875 C 1732.457031 416.152344 1730.859375 415.242188 1729.941406 413.867188 C 1729.714844 413.640625 1729.714844 413.410156 1729.714844 413.183594 C 1704.796875 389.863281 1669.125 375.914062 1635.75 365.628906 C 1593.449219 352.367188 1548.183594 341.394531 1505.882812 350.996094 C 1469.300781 359.226562 1429.75 390.09375 1428.835938 431.015625 C 1428.378906 447.019531 1433.640625 464.167969 1444.839844 483.828125 C 1473.417969 533.214844 1548.867188 576.199219 1620.65625 583.972656 C 1655.867188 587.628906 1704.566406 584.429688 1737.488281 548.074219 C 1764.238281 518.351562 1768.808594 470.109375 1748.234375 435.816406 Z M 1894.101562 204.898438 C 1892.957031 200.09375 1892.042969 198.496094 1891.8125 198.039062 C 1891.355469 197.808594 1890.441406 196.894531 1887.011719 195.523438 C 1867.574219 187.75 1845.398438 187.292969 1825.738281 194.835938 C 1795.554688 206.269531 1773.378906 234.847656 1755.777344 261.136719 C 1735.65625 291.546875 1718.050781 323.785156 1702.960938 357.164062 C 1718.28125 364.707031 1732.914062 373.625 1745.945312 384.828125 C 1758.980469 377.054688 1772.238281 369.738281 1785.269531 362.878906 C 1818.878906 345.046875 1850.886719 328.355469 1872.152344 300.691406 C 1892.730469 273.945312 1900.960938 238.046875 1894.101562 204.898438 Z M 1314.453125 285.867188 L 1275.832031 266.550781 C 1268.84375 263.050781 1265.59375 255.726562 1264.28125 251.679688 C 1262.394531 245.839844 1263.265625 239.011719 1266.730469 232.460938 C 1269.46875 227.269531 1275.476562 222.632812 1281.675781 220.929688 C 1287.769531 219.265625 1294.175781 220.085938 1300.761719 223.378906 L 1339.382812 242.699219 C 1346.371094 246.199219 1349.621094 253.519531 1350.933594 257.566406 C 1350.933594 257.566406 1350.933594 257.566406 1350.933594 257.570312 C 1352.8125 263.394531 1351.949219 270.222656 1348.484375 276.785156 C 1345.734375 281.984375 1339.730469 286.613281 1333.539062 288.320312 C 1331.5 288.878906 1329.421875 289.15625 1327.316406 289.15625 C 1323.136719 289.15625 1318.839844 288.0625 1314.453125 285.867188 Z M 1277.679688 262.859375 L 1316.300781 282.179688 C 1321.953125 285.003906 1327.375 285.726562 1332.441406 284.335938 C 1337.519531 282.941406 1342.621094 279.042969 1344.839844 274.855469 C 1346.539062 271.632812 1349.078125 265.257812 1346.996094 258.839844 C 1345.109375 252.988281 1341.65625 248.453125 1337.535156 246.386719 L 1298.910156 227.066406 C 1295.117188 225.171875 1291.425781 224.21875 1287.878906 224.21875 C 1286.136719 224.21875 1284.4375 224.449219 1282.769531 224.910156 C 1277.683594 226.304688 1272.589844 230.203125 1270.375 234.390625 C 1268.671875 237.609375 1266.128906 243.976562 1268.214844 250.410156 C 1270.101562 256.257812 1273.558594 260.796875 1277.679688 262.859375 Z M 1371.003906 307.117188 C 1367.128906 302.597656 1364.992188 296.546875 1364.992188 290.0625 C 1364.992188 277.667969 1373.289062 265.125 1389.140625 265.125 C 1404.988281 265.125 1413.285156 277.65625 1413.285156 290.03125 C 1413.285156 302.429688 1404.992188 314.972656 1389.140625 314.972656 C 1381.6875 314.972656 1375.417969 312.257812 1371.003906 307.117188 Z M 1369.117188 290.0625 C 1369.117188 295.554688 1370.898438 300.65625 1374.136719 304.425781 C 1377.738281 308.625 1382.929688 310.847656 1389.136719 310.847656 C 1402.886719 310.847656 1409.15625 300.058594 1409.15625 290.03125 C 1409.15625 284.539062 1407.375 279.4375 1404.136719 275.664062 C 1400.527344 271.46875 1395.34375 269.246094 1389.136719 269.246094 C 1375.378906 269.25 1369.117188 280.039062 1369.117188 290.0625 Z M 1369.117188 290.0625 " fill-opacity="1" fill-rule="nonzero"/></g></svg>