<svg xmlns="http://www.w3.org/2000/svg" version="1.1" xmlns:xlink="http://www.w3.org/1999/xlink" xmlns:svgjs="http://svgjs.dev/svgjs" width="2000" height="2000" viewBox="0 0 2000 2000"><g transform="matrix(1,0,0,1,0,0)"><svg viewBox="0 0 280 280" data-background-color="#3eb0f7" preserveAspectRatio="xMidYMid meet" height="2000" width="2000" xmlns="http://www.w3.org/2000/svg" xmlns:xlink="http://www.w3.org/1999/xlink"><g id="tight-bounds" transform="matrix(1,0,0,1,0,0)"><svg viewBox="0 0 280 280" height="280" width="280"><g><svg viewBox="0 0 280 280" height="280" width="280"><g><svg viewBox="0 0 280 280" height="280" width="280"><g id="textblocktransform"><svg viewBox="0 0 280 280" height="280" width="280" id="textblock"><g><svg viewBox="0 0 280 280" height="280" width="280"><g transform="matrix(1,0,0,1,57.50420886156945,57.50420886156945)"><svg viewBox="0 0 164.9915822768611 164.9915822768611" height="164.9915822768611" width="164.9915822768611"><g id="icon-0"><circle r="82" cx="82.49579113843055" cy="82.49579113843055" fill="#f98f7c" data-fill-palette-color="accent"></circle><svg xmlns="http://www.w3.org/2000/svg" class="icon-jxe-0" viewBox="69.89999999999998 98.20999999999998 884.2002891095225 827.6780000000001" x="24.74873734152917" y="24.748737341529164" height="115.49410759380275" width="115.49410759380275" data-fill-palette-color="quaternary" id="jxe-0"><path d="M559.099 925.888c-71.089 0-140.421-11.546-206.07-34.317-68.142-23.636-129.349-58.401-181.923-103.331-8.397-7.176-9.387-19.801-2.21-28.197 7.176-8.398 19.801-9.388 28.198-2.211 199.61 170.586 524.402 170.586 724.013 0 8.396-7.178 21.021-6.186 28.197 2.211s6.187 21.021-2.211 28.197c-52.573 44.93-113.781 79.695-181.923 103.331-65.65 22.771-134.982 34.317-206.071 34.317m323.492-504.856v209.05c0 27.57-22.43 50-50 50a49.7 49.7 0 0 1-17.075-3.005 46 46 0 0 1-2.897-1.159l-19.319-8.021v88.364c0 27.57-22.43 50-50 50h-29.26c-26.32 0-48.24-20.57-49.9-46.83-0.05-0.84-0.08-1.69-0.08-2.53v-67.18c0-18.35-15.18-33.28-33.84-33.28l-151.24 0.01c-18.46 0-33.48 14.86-33.48 33.11v67.21c0 0.68-0.02 1.36-0.05 2.04-1.36 26.61-23.29 47.45-49.94 47.45H366.1c-27.57 0-50-22.43-50-50V445.45c0-18.35-15.19-33.28-33.86-33.28h-10.79c-15.6 0-29.12 10.4-32.87 25.28l-5.97 23.69c-7.22 28.7-32.99 48.74-62.67 48.74h-35.42c-35.63 0-64.62-28.9-64.62-64.43V298.89c0-32.46 13.8-61.77 35.86-82.43-17.56-11.51-29.17-31.34-29.17-53.82 0-35.52 28.99-64.43 64.61-64.43h123.1c78.29 0 153.23 28.84 211.02 81.21 57.56 52.16 93.12 122.97 100.13 199.41 0.12 1.32 0.18 2.65 0.17 3.96h136.55v1.416c0.157-0.357 0.313-0.715 0.481-1.069 14.73-30.96 46.406-50.965 80.7-50.965 49.208 0 89.24 39.862 89.24 88.86M484.59 422.79v34.85c0 56.67 42.95 104.55 93.79 104.55s93.79-47.88 93.79-104.55v-34.85z m-368-260.15c0 13.46 11.04 24.42 24.62 24.42H264.3c113.86 0 207.94 85.65 220.22 195.42h51.1C523.07 245.72 406.19 138.21 264.3 138.21H141.2c-13.57 0-24.61 10.96-24.61 24.43M753.3 494.31c0-28.76-16.78-53.68-41.13-65.67v29c0 18.79-3.43 37.19-10.2 54.68-6.55 16.93-15.92 32.26-27.85 45.56-12.2 13.6-26.44 24.36-42.3 31.99-17 8.18-34.98 12.32-53.44 12.32s-36.44-4.14-53.44-12.32c-15.86-7.63-30.09-18.39-42.29-31.99-11.93-13.3-21.31-28.63-27.86-45.56-6.77-17.49-10.2-35.89-10.2-54.68V385.4c-10.89-90.38-88.12-158.34-180.29-158.34h-95.19c-33.73 6.76-59.21 36.4-59.21 71.83v146.56c0 13.47 11.05 24.43 24.62 24.43h35.42c11.32 0 21.14-7.61 23.88-18.5l5.97-23.7c8.24-32.68 37.7-55.51 71.66-55.51h10.79c40.73 0 73.86 32.88 73.86 73.28v310.81c0 5.52 4.48 10 10 10h29.41c5.35 0 9.72-4.2 9.99-9.49v-67.21c0-40.31 32.87-73.11 73.48-73.11l151.24-0.01c40.72 0 73.84 32.87 73.84 73.28v67.18c0.33 5.22 4.68 9.36 9.98 9.36h29.26c5.52 0 10-4.48 10-10z m89.291-73.278c0-26.94-22.09-48.86-49.24-48.86-19.37 0-36.63 11.44-44.58 28.15 27.21 22.42 44.58 56.23 44.58 93.99v124.13a9.98 9.98 0 0 0 5.94 8.63c0.04 0.02 0.07 0.04 0.11 0.05l0.4 0.17 0.09 0.03 28.66 11.9c0.2 0.1 0.4 0.18 0.6 0.25 1.07 0.4 2.23 0.61 3.44 0.61 5.52 0 10-4.48 10-10z" fill="#ffffff" data-fill-palette-color="quaternary"></path></svg></g></svg></g><g id="text-0"><path d="M3.92 89.942c1.398-3.831 3.449-6.32 6.153-7.469 2.701-1.142 6.175-0.938 10.419 0.612v0c4.352 1.589 7.416 3.792 9.191 6.611 1.779 2.827 1.983 6.118 0.613 9.874v0l-3.92 10.738-2.091-0.763 0.34-1.957c0.091-0.465 0.064-0.799-0.082-1.002-0.153-0.205-0.484-0.401-0.993-0.586v0l-18.717-6.833c-0.515-0.188-0.9-0.254-1.155-0.197-0.255 0.056-0.488 0.295-0.7 0.716v0l-0.887 1.758-2.091-0.763zM27.544 99.152c1.096-3.002 1.061-5.47-0.105-7.404-1.159-1.932-3.582-3.571-7.268-4.916v0c-3.762-1.373-6.748-1.691-8.96-0.954-2.208 0.746-3.847 2.585-4.918 5.517v0l-1.565 4.286 21.252 7.757z" fill="#ffffff" data-fill-palette-color="primary"></path><path d="M35.263 53.25c0.732-0.947 1.563-1.618 2.494-2.014v0l3.698 3.251-1.379 1.785-2.208-1.161c-0.356 0.122-0.732 0.439-1.129 0.953v0c-0.621 0.804-0.834 1.823-0.638 3.055 0.196 1.233 0.704 2.364 1.522 3.394v0l6.142 4.746c0.434 0.335 0.764 0.514 0.991 0.537 0.223 0.029 0.457-0.094 0.703-0.369v0l1.907-2.024 1.666 1.287-5.965 7.721-1.667-1.287 1.055-1.808c0.216-0.323 0.278-0.584 0.186-0.782-0.088-0.203-0.349-0.472-0.783-0.808v0l-8.824-6.818c-0.455-0.352-0.792-0.544-1.01-0.578-0.215-0.039-0.451 0.086-0.71 0.377v0l-1.402 1.438-1.611-1.245 3.341-4.324 3.176 1.959c-0.557-1.149-0.809-2.408-0.757-3.778 0.057-1.375 0.458-2.544 1.202-3.507z" fill="#ffffff" data-fill-palette-color="primary"></path><path d="M69.094 44.828c1.34-1.021 2.743-2.544 4.209-4.569v0l1.617 1.213c-0.461 0.939-1.145 1.982-2.054 3.128-0.904 1.151-1.915 2.153-3.031 3.004v0c-2.111 1.609-4.191 2.172-6.239 1.69-2.048-0.482-3.901-1.81-5.558-3.984v0c-1.921-2.52-2.877-4.994-2.869-7.421 0.013-2.431 1.147-4.505 3.402-6.224v0c1.51-1.151 2.912-1.744 4.205-1.779 1.298-0.039 2.532 0.378 3.702 1.251 1.17 0.874 2.409 2.169 3.718 3.887v0l-9.48 8.207c1.319 1.643 2.689 2.591 4.109 2.845 1.415 0.258 2.838-0.158 4.269-1.248zM59.727 34.025c-0.909 0.693-1.52 1.381-1.832 2.064-0.316 0.678-0.353 1.433-0.113 2.267 0.236 0.829 0.764 1.863 1.585 3.105v0l6.911-6.301c-0.944-1.239-1.945-1.985-3.004-2.237-1.062-0.258-2.245 0.109-3.547 1.102z" fill="#ffffff" data-fill-palette-color="primary"></path><path d="M103.808 27.075l1.986-0.482 0.764 1.962-5.158 2.008-1.407-2.756c-0.676 1.49-1.394 2.695-2.155 3.615-0.752 0.924-1.639 1.585-2.66 1.983v0c-1.452 0.565-2.775 0.585-3.969 0.06-1.194-0.525-2.07-1.504-2.629-2.937v0c-0.555-1.427-0.575-2.75-0.06-3.969 0.515-1.219 1.531-2.25 3.048-3.091v0l5.387-3.022-0.945-2.43c-0.378-0.972-0.975-1.575-1.792-1.81-0.818-0.241-1.832-0.126-3.04 0.344v0c-1.333 0.519-2.408 1.203-3.226 2.052v0l0.603 2.821-2.074 0.808-1.92-4.074c2.099-1.85 4.189-3.18 6.27-3.99v0c1.695-0.66 3.307-0.785 4.836-0.376 1.523 0.411 2.596 1.418 3.22 3.019v0l3.594 9.233c0.199 0.511 0.383 0.837 0.553 0.979 0.17 0.142 0.428 0.16 0.774 0.053zM91.575 29.072c0.31 0.797 0.769 1.329 1.375 1.595 0.606 0.266 1.283 0.254 2.03-0.037v0c0.754-0.293 1.442-0.838 2.065-1.632 0.621-0.801 1.275-1.895 1.962-3.282v0l-1.288-3.308-4.504 2.722c-0.841 0.492-1.404 1.074-1.688 1.744-0.278 0.668-0.262 1.4 0.048 2.198z" fill="#ffffff" data-fill-palette-color="primary"></path><path d="M152.077 22.424l2.032 0.219 0.055 2.105-6.045 0.156-0.325-12.55c-0.029-1.116-0.396-1.999-1.102-2.65-0.705-0.644-1.63-0.951-2.772-0.921v0c-1.016 0.026-1.964 0.338-2.845 0.936-0.881 0.591-1.57 1.348-2.068 2.27v0l0.024 0.943 0.217 8.38c0.014 0.548 0.077 0.918 0.19 1.109 0.105 0.191 0.355 0.295 0.75 0.311v0l2.112 0.217 0.055 2.105-6.125 0.158-0.325-12.55c-0.03-1.143-0.397-2.033-1.103-2.67-0.705-0.63-1.629-0.931-2.771-0.902v0c-1.016 0.026-1.958 0.318-2.827 0.876-0.868 0.557-1.564 1.324-2.087 2.301v0l0.242 9.353c0.014 0.548 0.084 0.917 0.21 1.108 0.119 0.191 0.362 0.295 0.73 0.312v0l2.142 0.216 0.055 2.105-9.042 0.234-0.055-2.105 1.988-0.323c0.387-0.037 0.628-0.153 0.723-0.349 0.102-0.197 0.146-0.569 0.132-1.117v0l-0.289-11.148c-0.015-0.575-0.078-0.958-0.19-1.148-0.105-0.191-0.352-0.295-0.741-0.312v0l-2-0.179-0.053-2.035 5.533-0.143 0.399 2.999c1.732-2.312 3.808-3.499 6.228-3.562v0c1.323-0.034 2.461 0.244 3.412 0.834 0.951 0.584 1.636 1.442 2.053 2.575v0c0.853-1.139 1.78-2.032 2.779-2.68 1-0.654 2.201-1 3.605-1.036v0c1.791-0.046 3.215 0.452 4.271 1.495 1.05 1.036 1.597 2.4 1.641 4.09v0l0.248 9.553c0.014 0.548 0.077 0.918 0.189 1.109 0.105 0.191 0.355 0.295 0.75 0.312z" fill="#ffffff" data-fill-palette-color="primary"></path><path d="M188.89 27.492l-1.972 6.616-17.639-5.907 0.707-2.111 1.966 0.288c0.467 0.079 0.799 0.045 0.995-0.1 0.195-0.139 0.374-0.453 0.538-0.941v0l6.343-18.942c0.163-0.488 0.21-0.85 0.141-1.084-0.072-0.228-0.318-0.452-0.738-0.67v0l-1.743-0.954 0.707-2.111 9.138 3.06-0.707 2.111-2.184-0.361c-0.467-0.079-0.801-0.05-1.003 0.087-0.197 0.146-0.377 0.462-0.54 0.951v0l-6.776 20.235 7.578 2.538c0.494 0.166 0.872 0.207 1.132 0.125 0.258-0.076 0.47-0.319 0.636-0.729v0l1.196-2.846z" fill="#ffffff" data-fill-palette-color="primary"></path><path d="M214.471 48.55l1.503 1.386-1.211 1.723-4.53-3.181 1.515-2.698c-1.614 0.263-3.015 0.333-4.203 0.21-1.186-0.114-2.228-0.486-3.125-1.116v0c-1.275-0.895-2.025-1.985-2.25-3.271-0.225-1.285 0.105-2.557 0.989-3.815v0c0.88-1.253 1.97-2.003 3.27-2.249 1.301-0.247 2.721 0.028 4.262 0.823v0l5.502 2.81 1.498-2.134c0.599-0.853 0.771-1.685 0.514-2.494-0.253-0.815-0.91-1.595-1.972-2.34v0c-1.171-0.822-2.336-1.338-3.495-1.548v0l-2.015 2.065-1.821-1.279 2.327-3.855c2.703 0.722 4.969 1.725 6.796 3.008v0c1.488 1.045 2.486 2.317 2.993 3.817 0.502 1.496 0.259 2.947-0.729 4.353v0l-5.693 8.108c-0.315 0.449-0.484 0.783-0.509 1.003-0.024 0.22 0.104 0.445 0.384 0.674zM206.031 39.474c-0.492 0.7-0.681 1.376-0.567 2.028 0.114 0.652 0.499 1.208 1.156 1.67v0c0.662 0.465 1.497 0.736 2.504 0.814 1.011 0.073 2.284 0.011 3.818-0.186v0l2.04-2.905-4.761-2.241c-0.876-0.427-1.672-0.574-2.388-0.439-0.71 0.139-1.311 0.558-1.802 1.259z" fill="#ffffff" data-fill-palette-color="primary"></path><path d="M239.481 76.529l1.025 1.768-1.666 1.288-3.693-4.776 9.869-7.63c0.947-0.732 1.473-1.565 1.578-2.501 0.096-0.936-0.261-1.928-1.071-2.974v0c-0.683-0.883-1.533-1.523-2.549-1.921-1.011-0.401-2.039-0.528-3.083-0.38v0l-7.401 5.723c-0.434 0.335-0.69 0.61-0.771 0.824-0.084 0.208-0.024 0.466 0.18 0.774v0l1.093 1.855-1.666 1.288-5.533-7.156 1.666-1.288 1.435 1.413c0.258 0.29 0.495 0.416 0.709 0.377 0.219-0.034 0.545-0.219 0.979-0.554v0l9.044-6.993c0.349-0.27 0.556-0.51 0.621-0.721 0.061-0.216-0.017-0.486-0.233-0.809v0l-1.02-1.631 1.61-1.246 3.386 4.379-2.07 2.045c1.413 0.09 2.673 0.392 3.78 0.905 1.103 0.508 2.053 1.278 2.85 2.309v0c1.161 1.502 1.642 2.977 1.443 4.424-0.195 1.452-0.941 2.68-2.237 3.681v0l-7.679 5.938c-0.434 0.335-0.697 0.602-0.788 0.799-0.088 0.203-0.024 0.466 0.192 0.79z" fill="#ffffff" data-fill-palette-color="primary"></path><path d="M253.986 108.763l0.447 2.004-1.977 0.725-1.924-5.243 2.312-1.18c-2.422-0.856-4.049-2.417-4.88-4.682v0c-0.781-2.128-0.64-4.084 0.421-5.87 1.061-1.785 2.91-3.161 5.545-4.128v0c1.833-0.672 3.632-0.92 5.4-0.742 1.769 0.184 3.318 0.766 4.646 1.745 1.334 0.977 2.293 2.26 2.875 3.848v0c0.527 1.437 0.771 2.858 0.731 4.261v0l7.832-2.874c0.515-0.189 0.84-0.379 0.976-0.572 0.138-0.186 0.153-0.466 0.045-0.839v0l-0.578-2.244 1.939-0.712 2.204 6.006-24.966 9.161c-0.515 0.189-0.846 0.364-0.993 0.525-0.145 0.167-0.164 0.437-0.055 0.811zM250.784 100.473c0.339 0.923 0.914 1.687 1.728 2.293 0.817 0.597 1.692 1.031 2.624 1.302v0l9.405-3.451c0.393-1.725 0.249-3.513-0.43-5.365v0c-0.548-1.494-1.515-2.392-2.902-2.695-1.388-0.31-3.303-0.016-5.744 0.879v0c-2.046 0.751-3.472 1.744-4.279 2.98-0.807 1.236-0.941 2.588-0.402 4.057z" fill="#ffffff" data-fill-palette-color="primary"></path><path d="M9.257 141.895c0-1.925 1.561-3.486 3.485-3.486 1.925 0 3.486 1.561 3.486 3.486 0 1.925-1.561 3.486-3.486 3.485-1.925 0-3.486-1.561-3.485-3.485z" fill="#ffffff" data-fill-palette-color="primary"></path><path d="M261.964 141.895c0-1.925 1.561-3.486 3.486-3.486 1.925 0 3.486 1.561 3.485 3.486 0 1.925-1.561 3.486-3.485 3.485-1.925 0-3.486-1.561-3.486-3.485z" fill="#ffffff" data-fill-palette-color="primary"></path></g><g id="text-1"><path d="M40.988 181.344c1.547 4.139 1.611 7.631 0.19 10.474-1.412 2.847-4.413 5.129-9.003 6.846v0c-4.696 1.756-8.769 2.097-12.218 1.024-3.455-1.071-5.941-3.635-7.458-7.693v0l-4.337-11.6 2.255-0.843 1.098 1.848c0.259 0.445 0.519 0.702 0.779 0.769 0.267 0.064 0.679-0.008 1.236-0.216v0l20.214-7.557c0.557-0.208 0.919-0.426 1.084-0.652 0.172-0.228 0.197-0.591 0.075-1.087v0l-0.506-2.07 2.254-0.843zM15.063 190.405c1.213 3.244 2.976 5.25 5.291 6.019 2.323 0.773 5.476 0.415 9.458-1.074v0c4.058-1.517 6.734-3.36 8.029-5.528 1.295-2.168 1.351-4.834 0.169-7.996v0l-1.731-4.631-22.947 8.579z" fill="#ffffff" data-fill-palette-color="primary"></path><path d="M52.138 219.024c0.799 1.021 1.283 2.073 1.451 3.156v0l-4.404 3.013-1.508-1.927 1.817-2.007c-0.036-0.404-0.271-0.883-0.704-1.436v0c-0.68-0.869-1.693-1.366-3.039-1.493-1.347-0.126-2.668 0.105-3.964 0.695v0l-6.618 5.178c-0.469 0.367-0.745 0.664-0.83 0.892-0.09 0.232-0.024 0.511 0.197 0.838v0l1.611 2.547-1.793 1.403-6.507-8.317 1.793-1.402 1.615 1.576c0.281 0.315 0.54 0.452 0.779 0.409 0.233-0.038 0.584-0.241 1.053-0.607v0l9.516-7.446c0.484-0.379 0.776-0.679 0.875-0.901 0.093-0.217 0.023-0.502-0.21-0.854v0l-1.131-1.853 1.729-1.353 3.646 4.66-2.9 2.803c1.357-0.272 2.748-0.198 4.173 0.224 1.42 0.426 2.537 1.16 3.353 2.202z" fill="#ffffff" data-fill-palette-color="primary"></path><path d="M60.387 250.859c1.457 1.11 3.454 2.134 5.991 3.073v0l-0.805 2.034c-1.111-0.207-2.398-0.62-3.86-1.237-1.457-0.613-2.792-1.382-4.004-2.305v0c-2.287-1.741-3.476-3.751-3.565-6.028-0.084-2.274 0.771-4.589 2.565-6.946v0c2.081-2.734 4.39-4.442 6.926-5.124 2.54-0.688 5.031-0.102 7.472 1.756v0c1.633 1.243 2.657 2.535 3.073 3.877 0.416 1.341 0.335 2.75-0.243 4.226-0.573 1.471-1.569 3.137-2.986 4.999v0l-11.298-7.542c-1.338 1.846-1.938 3.549-1.797 5.109 0.14 1.56 0.984 2.929 2.531 4.108zM68.98 237.966c-0.984-0.749-1.879-1.191-2.684-1.325-0.8-0.13-1.599 0.047-2.397 0.532-0.796 0.494-1.726 1.345-2.788 2.554v0l8.576 5.406c1.02-1.34 1.51-2.602 1.469-3.784-0.036-1.178-0.761-2.306-2.176-3.383z" fill="#ffffff" data-fill-palette-color="primary"></path><path d="M98.76 270.334l1.933 1.084-0.833 2.118-5.58-2.195 0.905-3.233c-1.637 0.692-3.093 1.125-4.369 1.299-1.284 0.177-2.476 0.05-3.577-0.383v0c-1.568-0.617-2.636-1.572-3.205-2.866-0.56-1.298-0.535-2.721 0.074-4.271v0c0.607-1.543 1.562-2.611 2.866-3.204 1.31-0.591 2.875-0.661 4.695-0.212v0l6.51 1.559 1.035-2.632c0.414-1.051 0.384-1.972-0.088-2.761-0.479-0.792-1.375-1.446-2.687-1.962v0c-1.437-0.565-2.792-0.811-4.064-0.736v0l-1.603 2.677-2.24-0.881 1.469-4.637c3.026 0.069 5.665 0.547 7.917 1.433v0c1.835 0.722 3.211 1.809 4.126 3.261 0.912 1.444 1.028 3.03 0.348 4.759v0l-3.927 9.986c-0.218 0.554-0.312 0.948-0.282 1.182 0.027 0.241 0.22 0.446 0.577 0.615zM87.555 262.931c-0.34 0.865-0.37 1.625-0.089 2.282 0.287 0.659 0.838 1.148 1.653 1.469v0c0.809 0.318 1.759 0.387 2.85 0.205 1.083-0.178 2.405-0.563 3.967-1.155v0l1.41-3.584-5.582-1.15c-1.032-0.226-1.907-0.175-2.625 0.153-0.716 0.322-1.244 0.915-1.584 1.78z" fill="#ffffff" data-fill-palette-color="primary"></path><path d="M152.756 275.786l2.187 0.362-0.064 2.276-6.545-0.184 0.381-13.592c0.034-1.216-0.31-2.192-1.031-2.928-0.728-0.736-1.711-1.121-2.947-1.157v0c-1.096-0.031-2.14 0.248-3.134 0.835-0.986 0.594-1.774 1.375-2.363 2.342v0l-0.028 1.012-0.255 9.082c-0.017 0.595 0.029 0.997 0.137 1.207 0.101 0.217 0.365 0.345 0.791 0.384v0l2.267 0.364-0.063 2.276-6.626-0.186 0.381-13.593c0.035-1.243-0.312-2.226-1.041-2.948-0.729-0.723-1.711-1.101-2.947-1.136v0c-1.096-0.031-2.13 0.228-3.102 0.776-0.978 0.548-1.776 1.335-2.393 2.36v0l-0.285 10.134c-0.017 0.595 0.036 0.998 0.157 1.209 0.121 0.217 0.378 0.345 0.772 0.382v0l2.307 0.366-0.064 2.275-9.793-0.274 0.063-2.276 2.164-0.24c0.422-0.015 0.692-0.128 0.812-0.338 0.119-0.204 0.187-0.603 0.204-1.199v0l0.339-12.078c0.017-0.615-0.028-1.031-0.135-1.248-0.108-0.21-0.372-0.338-0.792-0.383v0l-2.148-0.312 0.061-2.195 5.995 0.168 0.249 3.258c2.013-2.391 4.326-3.55 6.94-3.477v0c1.437 0.04 2.654 0.406 3.651 1.095 0.997 0.69 1.689 1.659 2.075 2.908v0c0.99-1.183 2.042-2.096 3.157-2.741 1.122-0.644 2.441-0.945 3.957-0.902v0c1.945 0.055 3.455 0.675 4.533 1.863 1.077 1.181 1.59 2.686 1.538 4.517v0l-0.29 10.345c-0.017 0.595 0.029 0.997 0.136 1.208 0.108 0.217 0.372 0.345 0.792 0.383z" fill="#ffffff" data-fill-palette-color="primary"></path><path d="M191.318 260.823l2.62 7.012-19.116 6.393-0.763-2.283 1.885-1.032c0.454-0.244 0.721-0.488 0.802-0.734 0.078-0.252 0.028-0.644-0.15-1.176v0l-6.86-20.514c-0.178-0.533-0.374-0.876-0.587-1.03-0.212-0.148-0.572-0.182-1.082-0.103v0l-2.127 0.309-0.764-2.282 9.901-3.311 0.763 2.283-2.124 1.112c-0.454 0.244-0.721 0.488-0.801 0.733-0.078 0.252-0.028 0.644 0.15 1.176v0l7.327 21.912 8.207-2.744c0.539-0.18 0.893-0.387 1.062-0.62 0.175-0.235 0.199-0.585 0.072-1.05v0l-0.812-3.249z" fill="#ffffff" data-fill-palette-color="primary"></path><path d="M222.992 247.004l1.974-1.009 1.302 1.868-4.921 3.428-2.188-2.545c-0.331 1.746-0.778 3.198-1.341 4.356-0.564 1.167-1.331 2.089-2.302 2.765v0c-1.382 0.963-2.77 1.323-4.162 1.079-1.391-0.253-2.562-1.063-3.513-2.429v0c-0.948-1.36-1.307-2.748-1.079-4.162 0.234-1.418 1.043-2.76 2.427-4.025v0l4.906-4.554-1.617-2.321c-0.646-0.927-1.428-1.413-2.347-1.456-0.924-0.04-1.965 0.343-3.123 1.149v0c-1.267 0.883-2.222 1.874-2.865 2.974v0l1.34 2.818-1.975 1.376-3.046-3.793c1.735-2.48 3.595-4.412 5.581-5.795v0c1.618-1.127 3.285-1.67 5.002-1.627 1.707 0.041 3.092 0.824 4.154 2.349v0l6.134 8.804c0.34 0.488 0.616 0.785 0.828 0.889 0.216 0.111 0.493 0.064 0.831-0.139zM210.62 252.226c0.531 0.762 1.148 1.209 1.85 1.339 0.707 0.126 1.42-0.061 2.139-0.561v0c0.713-0.497 1.297-1.25 1.75-2.259 0.452-1 0.865-2.314 1.238-3.942v0l-2.201-3.159-4.052 4.008c-0.76 0.733-1.203 1.49-1.327 2.269-0.129 0.774 0.072 1.542 0.603 2.305z" fill="#ffffff" data-fill-palette-color="primary"></path><path d="M251.007 216.11l1.59-1.543 1.793 1.403-4.037 5.156-10.644-8.334c-1.021-0.8-2.033-1.129-3.034-0.987-1.006 0.146-1.95 0.783-2.832 1.909v0c-0.75 0.958-1.199 2.02-1.348 3.185-0.147 1.175-0.007 2.287 0.42 3.335v0l7.982 6.25c0.468 0.367 0.823 0.564 1.065 0.592 0.247 0.032 0.502-0.099 0.767-0.393v0l1.665-1.639 1.792 1.404-6.04 7.714-1.792-1.404 1.092-1.883c0.239-0.348 0.309-0.633 0.21-0.854-0.093-0.217-0.374-0.509-0.842-0.876v0l-9.743-7.629c-0.379-0.297-0.688-0.45-0.927-0.458-0.244-0.013-0.507 0.138-0.788 0.453v0l-1.446 1.504-1.729-1.353 3.697-4.722 2.698 1.629c-0.284-1.513-0.305-2.918-0.063-4.214 0.247-1.292 0.804-2.491 1.67-3.596v0c1.269-1.621 2.688-2.523 4.257-2.704 1.574-0.177 3.058 0.28 4.453 1.372v0l8.282 6.485c0.468 0.367 0.819 0.569 1.053 0.607 0.238 0.042 0.498-0.094 0.779-0.409z" fill="#ffffff" data-fill-palette-color="primary"></path><path d="M267.553 180.304l1.054-1.949 2.131 0.801-2.128 5.66-2.726-0.672c1.377 2.417 1.604 4.853 0.682 7.306v0c-0.861 2.29-2.359 3.795-4.493 4.514-2.132 0.713-4.622 0.534-7.469-0.537v0c-1.977-0.743-3.628-1.814-4.953-3.212-1.324-1.398-2.186-2.972-2.585-4.721-0.395-1.741-0.271-3.469 0.374-5.184v0c0.583-1.552 1.386-2.889 2.408-4.012v0l-8.457-3.179c-0.557-0.209-0.957-0.285-1.201-0.227-0.25 0.056-0.462 0.28-0.637 0.671v0l-1.11 2.24-2.103-0.791 2.439-6.486 26.967 10.138c0.557 0.209 0.952 0.297 1.186 0.264 0.238-0.025 0.445-0.233 0.621-0.624zM264.321 189.385c0.376-1.001 0.441-2.038 0.194-3.109-0.241-1.069-0.649-2.044-1.225-2.925v0l-10.156-3.818c-1.541 1.135-2.689 2.707-3.444 4.716v0c-0.602 1.602-0.443 3.022 0.476 4.26 0.916 1.23 2.694 2.341 5.335 3.334v0c2.215 0.833 4.089 1.026 5.621 0.581 1.538-0.443 2.604-1.456 3.199-3.039z" fill="#ffffff" data-fill-palette-color="primary"></path></g></svg></g></svg></g></svg></g><g></g></svg></g><defs></defs></svg><rect width="280" height="280" fill="none" stroke="none" visibility="hidden"></rect></g></svg></g></svg>